<svg xmlns="http://www.w3.org/2000/svg" width="40" height="40" fill="none" viewBox="0 0 512 512"><path fill="#32AB45" d="M480 96H32V416H480V96Z"/><path fill="#FFE70E" d="M256 144L88 258.383L256 368L424 258.383L256 144Z"/><path fill="#2A2FAF" d="M320 256C320 291.346 291.346 320 256 320C220.654 320 192 291.346 192 256C192 220.654 220.654 192 256 192C291.346 192 320 220.654 320 256Z"/><path fill="#FBFBFB" fill-rule="evenodd" d="M201.428 222.56C208.684 220.885 216.242 220 224.007 220C264.861 220 299.993 244.498 315.513 279.606C311.761 289.056 305.823 297.4 298.323 304.015C290.981 269.717 260.497 244 224.007 244C212.652 244 201.879 246.49 192.203 250.954C193.01 240.603 196.28 230.943 201.428 222.56Z" clip-rule="evenodd"/></svg>