<svg xmlns="http://www.w3.org/2000/svg" width="800" height="450" viewBox="0 0 800 450"><defs><linearGradient id="bg" x1="0%" x2="100%" y1="0%" y2="100%"><stop offset="0%" style="stop-color:#f8f6f3;stop-opacity:1"/><stop offset="100%" style="stop-color:#e8e4de;stop-opacity:1"/></linearGradient><clipPath id="browser-clip"><rect width="800" height="450" x="0" y="0"/></clipPath></defs><rect width="800" height="36" x="0" y="0" fill="#f0efed" rx="0"/><circle cx="20" cy="18" r="5" fill="#ff5f57"/><circle cx="38" cy="18" r="5" fill="#ffbd2e"/><circle cx="56" cy="18" r="5" fill="#28c840"/><rect width="560" height="16" x="120" y="10" fill="#ddd9d3" rx="3"/><text x="400" y="22" fill="#999" font-family="sans-serif" font-size="9" text-anchor="middle">leticia-borges/index.html</text><rect width="800" height="414" x="0" y="36" fill="url(#bg)"/><rect width="800" height="50" x="0" y="36" fill="#fff" opacity=".7"/><text x="50" y="66" fill="#111" font-family="serif" font-size="16" font-weight="bold">Letícia <tspan fill="#888">Borges</tspan></text><text x="540" y="66" fill="#555" font-family="sans-serif" font-size="11">Reportagens</text><text x="620" y="66" fill="#555" font-family="sans-serif" font-size="11">Sobre</text><text x="680" y="66" fill="#fff" font-family="sans-serif" font-size="11" font-weight="bold" letter-spacing="1"><tspan background-color="#111" dx="0">Contato</tspan></text><rect width="70" height="26" x="670" y="52" fill="#111" rx="0"/><text x="705" y="70" fill="#fff" font-family="sans-serif" font-size="11" text-anchor="middle">Contato</text><text x="60" y="130" fill="#999" font-family="sans-serif" font-size="10" letter-spacing="2">JORNALISTA . CAMPINAS, SP</text><text x="60" y="175" fill="#111" font-family="serif" font-size="42" font-weight="bold">Letícia</text><text x="60" y="215" fill="#888" font-family="serif" font-size="42" font-style="italic">Borges</text><rect width="60" height="2" x="60" y="230" fill="#111"/><text x="60" y="262" fill="#555" font-family="sans-serif" font-size="13">Jornalismo policial e segurança pública.</text><text x="60" y="280" fill="#555" font-family="sans-serif" font-size="13">Estagiária na Thati TV | Record TV Campinas.</text><rect width="130" height="36" x="60" y="300" fill="#111" rx="0"/><text x="125" y="323" fill="#fff" font-family="sans-serif" font-size="11" letter-spacing="1" text-anchor="middle">TRABALHOS</text><rect width="240" height="320" x="520" y="100" fill="#e8e4de" rx="0"/><line x1="540" x2="740" y1="120" y2="120" stroke="#ddd" stroke-width="1"/><line x1="540" x2="740" y1="140" y2="140" stroke="#ddd" stroke-width="1"/><line x1="540" x2="700" y1="160" y2="160" stroke="#ddd" stroke-width="1"/><rect width="200" height="100" x="540" y="180" fill="#ddd9d3" rx="2"/><rect width="200" height="100" x="540" y="300" fill="#ddd9d3" rx="2"/></svg>