<svg xmlns="http://www.w3.org/2000/svg" width="800" height="450" viewBox="0 0 800 450"><defs><linearGradient id="bg" x1="0%" x2="0%" y1="0%" y2="100%"><stop offset="0%" style="stop-color:#0d0d0d;stop-opacity:1"/><stop offset="100%" style="stop-color:#1a1a1a;stop-opacity:1"/></linearGradient></defs><rect width="800" height="36" x="0" y="0" fill="#2a2a2a" rx="0"/><circle cx="20" cy="18" r="5" fill="#ff5f57"/><circle cx="38" cy="18" r="5" fill="#ffbd2e"/><circle cx="56" cy="18" r="5" fill="#28c840"/><rect width="560" height="16" x="120" y="10" fill="#3a3a3a" rx="3"/><text x="400" y="22" fill="#888" font-family="sans-serif" font-size="9" text-anchor="middle">atitudesomeluz.com.br</text><rect width="800" height="414" x="0" y="36" fill="url(#bg)"/><text x="50" y="72" fill="#0057FF" font-family="sans-serif" font-size="14" font-weight="bold" letter-spacing="1">ASL</text><text x="500" y="72" fill="#aaa" font-family="sans-serif" font-size="11">Início</text><text x="560" y="72" fill="#aaa" font-family="sans-serif" font-size="11">Serviços</text><text x="635" y="72" fill="#aaa" font-family="sans-serif" font-size="11">Galeria</text><text x="700" y="72" fill="#aaa" font-family="sans-serif" font-size="11">Contato</text><text x="60" y="160" fill="#0057FF" font-family="sans-serif" font-size="12" letter-spacing="3">SOM E LUZ PROFISSIONAL</text><text x="60" y="210" fill="#fff" font-family="sans-serif" font-size="40" font-weight="bold">Atitude</text><text x="60" y="255" fill="#fff" font-family="sans-serif" font-size="40" font-weight="bold">Som e Luz</text><rect width="80" height="3" x="60" y="275" fill="#0057FF"/><text x="60" y="310" fill="#888" font-family="sans-serif" font-size="13">Sonorização, iluminação e estrutura</text><text x="60" y="330" fill="#888" font-family="sans-serif" font-size="13">para eventos em Campinas e região.</text><rect width="150" height="40" x="60" y="355" fill="#0057FF" rx="0"/><text x="135" y="380" fill="#fff" font-family="sans-serif" font-size="12" font-weight="bold" letter-spacing="1" text-anchor="middle">SOLICITAR ORÇAMENTO</text><circle cx="650" cy="240" r="120" fill="none" stroke="#0057FF" stroke-width="1" opacity=".15"/><circle cx="650" cy="240" r="80" fill="none" stroke="#0057FF" stroke-width="1" opacity=".15"/><circle cx="650" cy="240" r="40" fill="none" stroke="#0057FF" stroke-width="1" opacity=".15"/><rect width="180" height="240" x="560" y="120" fill="#151515" rx="0"/><line x1="580" x2="720" y1="150" y2="150" stroke="#2a2a2a" stroke-width="1"/><line x1="580" x2="720" y1="170" y2="170" stroke="#2a2a2a" stroke-width="1"/><rect width="140" height="60" x="580" y="195" fill="#1f1f1f" rx="0"/><rect width="140" height="60" x="580" y="270" fill="#1f1f1f" rx="0"/></svg>