<?xml version="1.0" encoding="UTF-8"?>
<svg xmlns="http://www.w3.org/2000/svg" width="800" height="450" viewBox="0 0 800 450">
  <defs>
    <linearGradient id="bg" x1="0%" y1="0%" x2="0%" y2="100%">
      <stop offset="0%" style="stop-color:#0d0d0d;stop-opacity:1" />
      <stop offset="100%" style="stop-color:#1a1a1a;stop-opacity:1" />
    </linearGradient>
  </defs>
  <!-- Browser chrome -->
  <rect x="0" y="0" width="800" height="36" fill="#2a2a2a" rx="0"/>
  <circle cx="20" cy="18" r="5" fill="#ff5f57"/>
  <circle cx="38" cy="18" r="5" fill="#ffbd2e"/>
  <circle cx="56" cy="18" r="5" fill="#28c840"/>
  <rect x="120" y="10" width="560" height="16" rx="3" fill="#3a3a3a"/>
  <text x="400" y="22" font-family="sans-serif" font-size="9" fill="#888" text-anchor="middle">atitudesomeluz.com.br</text>
  <!-- Page content -->
  <rect x="0" y="36" width="800" height="414" fill="url(#bg)"/>
  <!-- Nav -->
  <text x="50" y="72" font-family="sans-serif" font-size="14" font-weight="bold" fill="#0057FF" letter-spacing="1">ASL</text>
  <text x="500" y="72" font-family="sans-serif" font-size="11" fill="#aaa">Início</text>
  <text x="560" y="72" font-family="sans-serif" font-size="11" fill="#aaa">Serviços</text>
  <text x="635" y="72" font-family="sans-serif" font-size="11" fill="#aaa">Galeria</text>
  <text x="700" y="72" font-family="sans-serif" font-size="11" fill="#aaa">Contato</text>
  <!-- Hero -->
  <text x="60" y="160" font-family="sans-serif" font-size="12" fill="#0057FF" letter-spacing="3">SOM E LUZ PROFISSIONAL</text>
  <text x="60" y="210" font-family="sans-serif" font-size="40" font-weight="bold" fill="#fff">Atitude</text>
  <text x="60" y="255" font-family="sans-serif" font-size="40" font-weight="bold" fill="#fff">Som e Luz</text>
  <rect x="60" y="275" width="80" height="3" fill="#0057FF"/>
  <text x="60" y="310" font-family="sans-serif" font-size="13" fill="#888">Sonorização, iluminação e estrutura</text>
  <text x="60" y="330" font-family="sans-serif" font-size="13" fill="#888">para eventos em Campinas e região.</text>
  <rect x="60" y="355" width="150" height="40" rx="0" fill="#0057FF"/>
  <text x="135" y="380" font-family="sans-serif" font-size="12" fill="#fff" text-anchor="middle" font-weight="bold" letter-spacing="1">SOLICITAR ORÇAMENTO</text>
  <!-- Decorative elements -->
  <circle cx="650" cy="240" r="120" fill="none" stroke="#0057FF" stroke-width="1" opacity="0.15"/>
  <circle cx="650" cy="240" r="80" fill="none" stroke="#0057FF" stroke-width="1" opacity="0.15"/>
  <circle cx="650" cy="240" r="40" fill="none" stroke="#0057FF" stroke-width="1" opacity="0.15"/>
  <rect x="560" y="120" width="180" height="240" fill="#151515" rx="0"/>
  <line x1="580" y1="150" x2="720" y2="150" stroke="#2a2a2a" stroke-width="1"/>
  <line x1="580" y1="170" x2="720" y2="170" stroke="#2a2a2a" stroke-width="1"/>
  <rect x="580" y="195" width="140" height="60" fill="#1f1f1f" rx="0"/>
  <rect x="580" y="270" width="140" height="60" fill="#1f1f1f" rx="0"/>
</svg>
