<?xml version="1.0" encoding="UTF-8"?>
<svg xmlns="http://www.w3.org/2000/svg" width="800" height="450" viewBox="0 0 800 450">
  <defs>
    <linearGradient id="bg" x1="0%" y1="0%" x2="100%" y2="100%">
      <stop offset="0%" style="stop-color:#f8f6f3;stop-opacity:1" />
      <stop offset="100%" style="stop-color:#e8e4de;stop-opacity:1" />
    </linearGradient>
    <clipPath id="browser-clip"><rect x="0" y="0" width="800" height="450"/></clipPath>
  </defs>
  <!-- Browser chrome -->
  <rect x="0" y="0" width="800" height="36" fill="#f0efed" rx="0"/>
  <circle cx="20" cy="18" r="5" fill="#ff5f57"/>
  <circle cx="38" cy="18" r="5" fill="#ffbd2e"/>
  <circle cx="56" cy="18" r="5" fill="#28c840"/>
  <rect x="120" y="10" width="560" height="16" rx="3" fill="#ddd9d3"/>
  <text x="400" y="22" font-family="sans-serif" font-size="9" fill="#999" text-anchor="middle">leticia-borges/index.html</text>
  <!-- Page content -->
  <rect x="0" y="36" width="800" height="414" fill="url(#bg)"/>
  <!-- Nav bar -->
  <rect x="0" y="36" width="800" height="50" fill="#fff" opacity="0.7"/>
  <text x="50" y="66" font-family="serif" font-size="16" font-weight="bold" fill="#111">Letícia <tspan fill="#888">Borges</tspan></text>
  <text x="540" y="66" font-family="sans-serif" font-size="11" fill="#555">Reportagens</text>
  <text x="620" y="66" font-family="sans-serif" font-size="11" fill="#555">Sobre</text>
  <text x="680" y="66" font-family="sans-serif" font-size="11" fill="#fff" font-weight="bold" letter-spacing="1">
    <tspan background-color="#111" dx="0">Contato</tspan>
  </text>
  <rect x="670" y="52" width="70" height="26" rx="0" fill="#111"/>
  <text x="705" y="70" font-family="sans-serif" font-size="11" fill="#fff" text-anchor="middle">Contato</text>
  <!-- Hero section -->
  <text x="60" y="130" font-family="sans-serif" font-size="10" fill="#999" letter-spacing="2">JORNALISTA . CAMPINAS, SP</text>
  <text x="60" y="175" font-family="serif" font-size="42" font-weight="bold" fill="#111">Letícia</text>
  <text x="60" y="215" font-family="serif" font-size="42" font-style="italic" fill="#888">Borges</text>
  <rect x="60" y="230" width="60" height="2" fill="#111"/>
  <text x="60" y="262" font-family="sans-serif" font-size="13" fill="#555">Jornalismo policial e segurança pública.</text>
  <text x="60" y="280" font-family="sans-serif" font-size="13" fill="#555">Estagiária na Thati TV | Record TV Campinas.</text>
  <rect x="60" y="300" width="130" height="36" rx="0" fill="#111"/>
  <text x="125" y="323" font-family="sans-serif" font-size="11" fill="#fff" text-anchor="middle" letter-spacing="1">TRABALHOS</text>
  <!-- Decorative accent -->
  <rect x="520" y="100" width="240" height="320" fill="#e8e4de" rx="0"/>
  <line x1="540" y1="120" x2="740" y2="120" stroke="#ddd" stroke-width="1"/>
  <line x1="540" y1="140" x2="740" y2="140" stroke="#ddd" stroke-width="1"/>
  <line x1="540" y1="160" x2="700" y2="160" stroke="#ddd" stroke-width="1"/>
  <rect x="540" y="180" width="200" height="100" fill="#ddd9d3" rx="2"/>
  <rect x="540" y="300" width="200" height="100" fill="#ddd9d3" rx="2"/>
</svg>
