<?xml version="1.0" encoding="UTF-8"?>
<svg xmlns="http://www.w3.org/2000/svg" width="420" height="560" viewBox="0 0 420 560">
  <defs>
    <linearGradient id="wg" x1="0%" y1="0%" x2="100%" y2="100%">
      <stop offset="0%" style="stop-color:#111318;stop-opacity:1" />
      <stop offset="100%" style="stop-color:#1a1c20;stop-opacity:1" />
    </linearGradient>
  </defs>
  <rect width="420" height="560" fill="url(#wg)"/>
  <!-- Monitor -->
  <rect x="60" y="60" width="300" height="180" rx="4" fill="none" stroke="#333539" stroke-width="1"/>
  <rect x="70" y="70" width="280" height="160" fill="#1a1c20"/>
  <!-- Code lines -->
  <rect x="85" y="85" width="120" height="4" fill="#0057FF" opacity="0.6"/>
  <rect x="85" y="95" width="180" height="4" fill="#c3c7cb" opacity="0.3"/>
  <rect x="85" y="105" width="140" height="4" fill="#0057FF" opacity="0.4"/>
  <rect x="85" y="115" width="200" height="4" fill="#c3c7cb" opacity="0.2"/>
  <rect x="85" y="125" width="160" height="4" fill="#0057FF" opacity="0.5"/>
  <rect x="85" y="135" width="100" height="4" fill="#c3c7cb" opacity="0.3"/>
  <rect x="85" y="145" width="170" height="4" fill="#0057FF" opacity="0.4"/>
  <rect x="85" y="155" width="130" height="4" fill="#c3c7cb" opacity="0.2"/>
  <rect x="85" y="165" width="190" height="4" fill="#0057FF" opacity="0.3"/>
  <rect x="85" y="175" width="150" height="4" fill="#c3c7cb" opacity="0.4"/>
  <rect x="85" y="185" width="110" height="4" fill="#0057FF" opacity="0.5"/>
  <rect x="85" y="195" width="180" height="4" fill="#c3c7cb" opacity="0.2"/>
  <rect x="85" y="205" width="140" height="4" fill="#0057FF" opacity="0.3"/>
  <rect x="85" y="215" width="160" height="4" fill="#c3c7cb" opacity="0.4"/>
  <rect x="85" y="225" width="120" height="4" fill="#0057FF" opacity="0.6"/>
  <!-- Monitor stand -->
  <rect x="180" y="240" width="60" height="20" fill="#232834"/>
  <rect x="140" y="260" width="140" height="4" fill="#232834"/>
  <!-- Keyboard -->
  <rect x="100" y="300" width="220" height="60" rx="2" fill="none" stroke="#333539" stroke-width="1"/>
  <rect x="110" y="310" width="200" height="4" fill="#333539" opacity="0.5"/>
  <rect x="110" y="320" width="200" height="4" fill="#333539" opacity="0.5"/>
  <rect x="110" y="330" width="200" height="4" fill="#333539" opacity="0.5"/>
  <rect x="110" y="340" width="200" height="4" fill="#333539" opacity="0.5"/>
  <!-- Terminal window -->
  <rect x="60" y="380" width="300" height="140" rx="4" fill="none" stroke="#333539" stroke-width="1"/>
  <rect x="70" y="390" width="280" height="120" fill="#1a1c20"/>
  <text x="85" y="410" font-family="monospace" font-size="10" fill="#0057FF">$ npm run build</text>
  <text x="85" y="430" font-family="monospace" font-size="10" fill="#c3c7cb" opacity="0.5">✓ Compiled successfully</text>
  <text x="85" y="450" font-family="monospace" font-size="10" fill="#0057FF" opacity="0.7">$ deploy --prod</text>
  <text x="85" y="470" font-family="monospace" font-size="10" fill="#c3c7cb" opacity="0.5">✓ Deployed to production</text>
  <text x="85" y="490" font-family="monospace" font-size="10" fill="#0057FF" opacity="0.8">✓ All systems operational</text>
</svg>
