<svg xmlns="http://www.w3.org/2000/svg" width="420" height="560" viewBox="0 0 420 560"><defs><linearGradient id="wg" x1="0%" x2="100%" y1="0%" y2="100%"><stop offset="0%" style="stop-color:#111318;stop-opacity:1"/><stop offset="100%" style="stop-color:#1a1c20;stop-opacity:1"/></linearGradient></defs><rect width="420" height="560" fill="url(#wg)"/><rect width="300" height="180" x="60" y="60" fill="none" stroke="#333539" stroke-width="1" rx="4"/><rect width="280" height="160" x="70" y="70" fill="#1a1c20"/><rect width="120" height="4" x="85" y="85" fill="#0057FF" opacity=".6"/><rect width="180" height="4" x="85" y="95" fill="#c3c7cb" opacity=".3"/><rect width="140" height="4" x="85" y="105" fill="#0057FF" opacity=".4"/><rect width="200" height="4" x="85" y="115" fill="#c3c7cb" opacity=".2"/><rect width="160" height="4" x="85" y="125" fill="#0057FF" opacity=".5"/><rect width="100" height="4" x="85" y="135" fill="#c3c7cb" opacity=".3"/><rect width="170" height="4" x="85" y="145" fill="#0057FF" opacity=".4"/><rect width="130" height="4" x="85" y="155" fill="#c3c7cb" opacity=".2"/><rect width="190" height="4" x="85" y="165" fill="#0057FF" opacity=".3"/><rect width="150" height="4" x="85" y="175" fill="#c3c7cb" opacity=".4"/><rect width="110" height="4" x="85" y="185" fill="#0057FF" opacity=".5"/><rect width="180" height="4" x="85" y="195" fill="#c3c7cb" opacity=".2"/><rect width="140" height="4" x="85" y="205" fill="#0057FF" opacity=".3"/><rect width="160" height="4" x="85" y="215" fill="#c3c7cb" opacity=".4"/><rect width="120" height="4" x="85" y="225" fill="#0057FF" opacity=".6"/><rect width="60" height="20" x="180" y="240" fill="#232834"/><rect width="140" height="4" x="140" y="260" fill="#232834"/><rect width="220" height="60" x="100" y="300" fill="none" stroke="#333539" stroke-width="1" rx="2"/><rect width="200" height="4" x="110" y="310" fill="#333539" opacity=".5"/><rect width="200" height="4" x="110" y="320" fill="#333539" opacity=".5"/><rect width="200" height="4" x="110" y="330" fill="#333539" opacity=".5"/><rect width="200" height="4" x="110" y="340" fill="#333539" opacity=".5"/><rect width="300" height="140" x="60" y="380" fill="none" stroke="#333539" stroke-width="1" rx="4"/><rect width="280" height="120" x="70" y="390" fill="#1a1c20"/><text x="85" y="410" fill="#0057FF" font-family="monospace" font-size="10">$ npm run build</text><text x="85" y="430" fill="#c3c7cb" font-family="monospace" font-size="10" opacity=".5">✓ Compiled successfully</text><text x="85" y="450" fill="#0057FF" font-family="monospace" font-size="10" opacity=".7">$ deploy --prod</text><text x="85" y="470" fill="#c3c7cb" font-family="monospace" font-size="10" opacity=".5">✓ Deployed to production</text><text x="85" y="490" fill="#0057FF" font-family="monospace" font-size="10" opacity=".8">✓ All systems operational</text></svg>